<svg width="32" height="32" viewBox="0 0 32 32" fill="none" xmlns="http://www.w3.org/2000/svg">
<g clip-path="url(#clip0_31_104)">
<path fill-rule="evenodd" clip-rule="evenodd" d="M16 5.33337C17.14 5.33337 18.3093 5.36271 19.4426 5.41071L20.7813 5.47471L22.0626 5.55071L23.2626 5.63204L24.3586 5.71737C25.548 5.80841 26.6672 6.31597 27.5193 7.15076C28.3714 7.98555 28.9019 9.09409 29.0173 10.2814L29.0706 10.848L29.1706 12.0614C29.264 13.3187 29.3333 14.6894 29.3333 16C29.3333 17.3107 29.264 18.6814 29.1706 19.9387L29.0706 21.152C29.0533 21.3467 29.036 21.5347 29.0173 21.7187C28.9018 22.9062 28.3712 24.0149 27.5188 24.8497C26.6664 25.6845 25.5469 26.192 24.3573 26.2827L23.264 26.3667L22.064 26.4494L20.7813 26.5254L19.4426 26.5894C18.2957 26.6392 17.1479 26.665 16 26.6667C14.852 26.665 13.7042 26.6392 12.5573 26.5894L11.2186 26.5254L9.93729 26.4494L8.73729 26.3667L7.64129 26.2827C6.45189 26.1917 5.3327 25.6841 4.48059 24.8493C3.62848 24.0145 3.09806 22.906 2.98263 21.7187L2.92929 21.152L2.82929 19.9387C2.72734 18.6282 2.67308 17.3145 2.66663 16C2.66663 14.6894 2.73596 13.3187 2.82929 12.0614L2.92929 10.848C2.94663 10.6534 2.96396 10.4654 2.98263 10.2814C3.09801 9.0943 3.62825 7.98593 4.48008 7.15117C5.33191 6.3164 6.4508 5.80871 7.63996 5.71737L8.73463 5.63204L9.93463 5.55071L11.2173 5.47471L12.556 5.41071C13.7033 5.36088 14.8515 5.3351 16 5.33337ZM13.3333 12.7667V19.2334C13.3333 19.8494 14 20.2334 14.5333 19.9267L20.1333 16.6934C20.2551 16.6232 20.3564 16.5222 20.4267 16.4005C20.4971 16.2788 20.5342 16.1406 20.5342 16C20.5342 15.8594 20.4971 15.7213 20.4267 15.5996C20.3564 15.4779 20.2551 15.3769 20.1333 15.3067L14.5333 12.0747C14.4116 12.0045 14.2736 11.9675 14.1332 11.9675C13.9927 11.9676 13.8547 12.0046 13.7331 12.0748C13.6114 12.1451 13.5105 12.2462 13.4403 12.3679C13.3701 12.4895 13.3332 12.6276 13.3333 12.768V12.7667Z" fill="#F1E612"/>
</g>
<defs>
<clipPath id="clip0_31_104">
<rect width="32" height="32" fill="white"/>
</clipPath>
</defs>
</svg>
