<svg width="87" height="46" viewBox="0 0 87 46" fill="none" xmlns="http://www.w3.org/2000/svg">
<g clip-path="url(#clip0_31_171)">
<path d="M36.5876 5.02113V5.75C36.0657 5.57003 35.7958 5.48005 35.7598 5.48005C34.2031 4.49922 32.0884 3.93232 29.3979 3.77934C26.0415 3.56338 22.5861 3.64437 19.0497 4.0043C19.0227 4.0043 18.8517 4.0313 18.5458 4.09429C18.3928 4.5802 18.3208 4.84116 18.3208 4.87715C17.9249 7.13576 16.9351 10.9871 15.3423 16.4131C14.9734 17.6369 14.5955 18.8517 14.1995 20.0755C13.8036 21.2993 13.2547 22.883 12.5528 24.8357C11.8509 26.7883 11.428 27.9941 11.275 28.4531C11.0051 29.2179 9.28638 34.302 6.14593 43.7054C6.14593 43.7324 6.11894 43.8494 6.05595 44.0473C5.99296 44.2453 5.94797 44.3893 5.92097 44.4793C5.67801 45.3971 5.11111 45.811 4.22926 45.7121C3.59937 45.3611 3.22144 45.0282 3.06847 44.7222C2.91549 44.4163 2.8975 43.9304 3.02347 43.2555C3.39241 41.4198 3.83333 39.4041 4.35524 37.2085C5.36307 32.9973 6.63185 27.7422 8.15258 21.4523C9.09742 17.511 10.6721 12.6338 12.8678 6.79382C12.8948 6.70383 13.1107 6.09194 13.5067 4.95814C13.0207 4.93114 12.7598 4.91315 12.7238 4.91315C11.347 5.24609 9.43036 5.723 6.95579 6.3349L6.67684 6.51487C6.65884 6.77582 6.62285 6.97379 6.59585 7.12676C5.1921 7.27973 4.43623 7.36072 4.32825 7.37872C4.22027 7.39671 3.49139 7.59468 2.15063 7.99961C1.66471 7.74765 1.17879 7.4957 0.683881 7.21675C0.593897 7.06377 0.467919 6.79382 0.314945 6.41588C0.17097 6.03795 0.062989 5.768 0 5.61502C0.0269953 5.03912 0.269953 4.6072 0.728873 4.32825C1.82668 3.62637 2.59155 3.16745 3.01448 2.95149C5.1471 1.97066 7.57668 1.26878 10.2942 0.845853C12.3998 0.512911 15.1444 0.251956 18.5368 0.0719875C20.5794 -0.0539905 23.099 -0.0179968 26.0955 0.161972C28.1381 0.28795 29.9918 0.593897 31.6385 1.07981C33.4742 1.62872 34.8149 2.43858 35.6698 3.50939C35.9487 3.84233 36.2547 4.34624 36.5876 5.02113Z" fill="#F40387"/>
<path d="M27.8411 38.8102C27.8681 38.8102 27.9311 38.9452 28.0211 39.2242C27.6522 39.4041 27.2112 39.3412 26.6893 39.0442C25.7085 38.4683 25.0246 37.6404 24.6287 36.5696C24.2957 35.6518 24.0168 34.437 23.8008 32.9073C23.8008 32.7813 23.7738 32.4933 23.7108 32.0344C23.6209 31.9714 23.5309 31.9624 23.4589 32.0074C23.3869 32.0524 23.3329 32.0794 23.3239 32.0974C23.3059 32.1154 23.2789 32.1604 23.2339 32.2324C23.1889 32.3044 23.1529 32.3494 23.1169 32.3494C21.4072 34.518 20.5344 35.6158 20.5074 35.6428C19.8325 36.4347 19.1756 37.0286 18.5367 37.4335C17.8079 37.8924 17.061 38.0454 16.3141 37.8924C15.5673 37.7394 14.9284 37.3165 14.4155 36.6146C14.1365 36.2817 14.0465 35.8318 14.1365 35.2829C14.2895 34.428 14.4425 33.7891 14.5954 33.3572C15.7202 30.0908 17.295 27.1573 19.3106 24.5657C19.7065 24.0438 20.5614 23.135 21.8752 21.8212C22.2081 21.4883 22.595 21.2273 23.018 21.0383C23.5939 20.7594 24.1158 20.7954 24.5747 21.1283C25.0336 21.4613 25.2496 21.9652 25.2136 22.6401L25.1236 23.144C24.9436 23.207 24.7907 23.207 24.6647 23.144C24.5387 23.081 24.4307 22.982 24.3227 22.847C24.2148 22.712 24.1158 22.6221 24.0258 22.5951C22.928 23.7559 21.6772 25.6455 20.2734 28.2731C18.8697 30.9006 18.1498 32.7003 18.1228 33.6721C19.4366 32.2414 20.4894 30.8466 21.2813 29.5059C21.3982 29.3259 22.1991 27.8412 23.6659 25.0606C24.2418 24.9077 24.8446 24.9527 25.4745 25.1956C26.0954 25.4386 26.5364 25.8255 26.7793 26.3384C26.9323 26.6084 26.9953 26.9503 26.9593 27.3462C26.9593 27.6792 26.9233 28.1651 26.8423 28.786C26.7703 29.4159 26.7253 29.8658 26.7253 30.1358C26.5454 32.4843 26.6173 34.626 26.9503 36.5426C27.1213 37.4875 27.4182 38.2343 27.8411 38.8102Z" fill="#F40387"/>
<path d="M27.2923 14.4065C27.0494 14.4065 26.8334 14.3795 26.6534 14.3345C26.4735 14.2895 26.3115 14.2085 26.1765 14.0825C26.0415 13.9566 25.9155 13.8036 25.8076 13.6056C25.6996 13.4077 25.6006 13.1557 25.5106 12.8498C25.9066 12.6068 26.1225 12.4808 26.1495 12.4808C27.8862 12.0219 29.02 11.7519 29.5419 11.653C30.7027 11.473 32.7814 11.1671 35.7688 10.7351C35.8318 10.7351 36.4257 10.7081 37.5505 10.6451C37.8565 9.97026 38.2434 9.00743 38.7203 7.73865C39.1972 6.46987 39.4582 5.75899 39.5212 5.60602C39.6112 5.39005 39.8631 4.67918 40.2771 3.47339C40.691 2.2676 41.0599 1.35875 41.4019 0.746861C42.2567 0.503904 42.9856 0.683872 43.5975 1.29577C43.9304 1.60171 44.0744 1.94365 44.0294 2.32159C43.9844 2.69952 43.9304 3.01447 43.8674 3.25742C43.3815 5.42605 42.8596 7.33372 42.3107 8.98043C42.2837 9.00742 42.1577 9.39436 41.9418 10.1232C42.2477 10.2492 43.0216 10.2492 44.2814 10.1502C45.5321 10.0422 46.297 9.98826 46.567 9.98826C46.7829 9.98826 48.2497 9.92527 50.9672 9.80829C51.1202 9.59232 51.3451 9.1244 51.6511 8.38653C51.7141 8.17057 51.84 7.81963 52.038 7.33372C52.236 6.8478 52.3979 6.46087 52.5149 6.19092C52.6679 5.82198 52.8119 5.60602 52.9468 5.52503C53.0818 5.45304 53.3788 5.44404 53.8377 5.49804C54.2606 5.56102 54.6476 5.723 54.9805 6.00195C55.4034 6.33489 55.5474 6.74882 55.3944 7.23473C55.3314 7.36071 55.2594 7.54068 55.1695 7.78364C55.0795 8.0266 55.0165 8.21556 54.9895 8.33254C54.9265 8.48552 54.7915 8.86345 54.5756 9.47534C54.6656 9.62832 54.8815 9.7183 55.2145 9.7453C55.4304 9.7453 55.8893 9.7453 56.6092 9.7453C57.3291 9.7453 57.887 9.7453 58.2829 9.7453C59.5967 9.80829 60.8205 9.96126 61.9453 10.2042C62.6202 10.3572 63.2231 10.6361 63.781 11.0321C64.2039 11.338 64.4559 11.644 64.5098 11.9499C64.4469 12.2559 64.2309 12.3908 63.871 12.3638C63.691 12.3368 62.9981 12.2379 61.8103 12.0849C60.4336 11.9049 58.8048 11.8869 56.9062 12.0399C56.7532 12.0399 56.1773 12.0669 55.1695 12.1299C55.0165 12.1299 54.5306 12.1479 53.7027 12.1749C53.4598 12.8138 53.3338 13.1557 53.3338 13.1827C52.2 16.5751 51.0482 20.6784 49.8514 25.5016C49.0235 28.768 48.4296 31.7465 48.0697 34.428C47.6738 37.1455 47.7008 39.4221 48.1597 41.2488C48.2227 41.4918 48.3127 41.7527 48.4386 42.0317C48.4386 42.0587 48.5106 42.1487 48.6636 42.3106C49.1225 42.3376 49.6444 42.2027 50.2203 41.8967C51.0482 41.5008 51.7591 41.0419 52.3709 40.5199C52.5869 40.304 52.8569 40.043 53.1718 39.7371C53.4958 39.4311 53.8017 39.1432 54.1076 38.8642C54.4136 38.5853 54.6835 38.3423 54.9355 38.1354C55.2684 37.8294 55.8623 37.3885 56.7172 36.8036C56.7172 36.7766 56.9422 36.6686 57.4011 36.4797C57.4911 36.8486 57.536 37.0466 57.536 37.0735C57.5091 37.7754 57.2571 38.4593 56.8072 39.1342C55.6824 40.7809 54.3146 42.0947 52.7309 43.0755C51.3541 43.9573 49.8874 44.2003 48.3397 43.8044C46.414 43.3455 45.2082 42.2027 44.7223 40.367C44.1734 38.4413 44.0384 36.5966 44.3084 34.8239C44.3353 34.608 44.5963 32.9433 45.0912 29.8298C44.6953 30.6847 44.4793 31.1436 44.4523 31.2066C42.5897 35.0219 41.4918 37.2535 41.1589 37.8924C39.9711 39.971 38.5494 42.0137 36.9026 44.0293C36.6597 44.2993 36.3537 44.6052 35.9848 44.9472C35.3099 45.5231 34.653 45.802 34.0141 45.775C33.8612 45.775 33.7532 45.793 33.6902 45.82C33.5102 45.91 33.3213 45.955 33.1413 45.955C32.9613 45.955 32.8083 45.955 32.7094 45.955C32.6014 45.955 32.4394 45.91 32.2235 45.82C32.0075 45.73 31.8815 45.6761 31.8365 45.6581C31.7915 45.6401 31.6296 45.5591 31.3596 45.4061C31.0537 45.2531 30.7837 45.0732 30.5587 44.8572C30.3338 44.6412 30.1448 44.4073 30.0098 44.1463C29.8749 43.8854 29.7579 43.6244 29.6679 43.3455C29.5779 43.0665 29.4969 42.7516 29.4429 42.3826C29.263 40.9159 29.2 39.6831 29.263 38.6753C29.4789 36.5336 29.7849 34.581 30.1808 32.8173C31.1616 28.759 32.5654 24.2688 34.3921 19.3556C34.941 17.8889 35.5529 16.2422 36.2278 14.4065L36.4077 13.8126C36.3177 13.6326 36.1018 13.5516 35.7688 13.5876C35.1929 13.6506 34.2301 13.7496 32.9073 13.8846C31.5756 14.0196 30.5677 14.1185 29.8659 14.1815C29.155 14.2805 28.3001 14.3435 27.2923 14.4065ZM33.3393 40.367C33.3033 40.43 33.2943 41.1498 33.2943 42.5266C33.3213 42.5266 33.3663 42.5356 33.4112 42.5536C33.4562 42.5716 33.4922 42.5806 33.5282 42.5806C34.1671 41.9057 34.5001 41.5458 34.5361 41.4828C35.9398 39.5931 36.8756 38.2973 37.3256 37.5865C38.4864 35.7508 39.9801 32.9793 41.8158 29.2539C42.1487 28.579 42.5177 27.8322 42.9136 27.0133C43.3095 26.1854 43.7414 25.3216 44.1914 24.4037C44.6503 23.4859 45.0192 22.739 45.2892 22.1631C45.4152 21.9202 45.5591 21.6322 45.7211 21.2903C45.8921 20.9573 46.045 20.6604 46.18 20.3994C46.315 20.1385 46.468 19.8415 46.6389 19.5086C46.8099 19.1757 46.9539 18.8697 47.0709 18.5908C47.7458 17.214 48.5646 15.4593 49.5454 13.3267C49.5454 13.2997 49.6174 13.0207 49.7704 12.4988C45.9551 12.7688 43.0216 13.0207 40.9789 13.2277C40.673 14.0196 40.52 14.4335 40.52 14.4605C39.1792 18.4918 38.4864 20.5164 38.4594 20.5524C36.4437 26.2034 34.977 31.1436 34.0591 35.3908C33.7352 36.9656 33.4922 38.6303 33.3393 40.367Z" fill="#F40387"/>
<path d="M68.829 38.8102C68.856 38.8102 68.919 38.9452 69.009 39.2242C68.64 39.4041 68.1991 39.3412 67.6772 39.0442C66.6964 38.4683 66.0125 37.6404 65.6166 36.5696C65.2836 35.6518 65.0047 34.437 64.7887 32.9073C64.7887 32.7813 64.7617 32.4933 64.6987 32.0344C64.6087 31.9714 64.5187 31.9624 64.4468 32.0074C64.3748 32.0524 64.3208 32.0794 64.3118 32.0974C64.2938 32.1154 64.2668 32.1604 64.2218 32.2324C64.1768 32.3044 64.1408 32.3494 64.1048 32.3494C62.3951 34.518 61.5223 35.6158 61.4953 35.6428C60.8204 36.4347 60.1635 37.0286 59.5246 37.4335C58.7957 37.8924 58.0489 38.0454 57.302 37.8924C56.5551 37.7394 55.9252 37.3165 55.4033 36.6146C55.1334 36.2817 55.0344 35.8318 55.1334 35.2829C55.2864 34.428 55.4393 33.7891 55.5923 33.3572C56.7171 30.0908 58.2918 27.1573 60.3075 24.5657C60.7034 24.0438 61.5583 23.135 62.872 21.8212C63.205 21.4883 63.5919 21.2273 64.0148 21.0383C64.5907 20.7594 65.1126 20.7954 65.5716 21.1283C66.0305 21.4613 66.2464 21.9652 66.2105 22.6401L66.1205 23.144C65.9405 23.207 65.7875 23.207 65.6615 23.144C65.5356 23.081 65.4276 22.982 65.3196 22.847C65.2116 22.712 65.1126 22.6221 65.0227 22.5951C63.9248 23.7559 62.6741 25.6455 61.2703 28.2731C59.8665 30.9006 59.1467 32.7003 59.1197 33.6721C60.4335 32.2414 61.4863 30.8466 62.2781 29.5059C62.4041 29.3259 63.196 27.8412 64.6627 25.0606C65.2386 24.9077 65.8415 24.9527 66.4714 25.1956C67.1013 25.4386 67.5332 25.8255 67.7762 26.3384C67.9291 26.6084 67.9921 26.9503 67.9561 27.3462C67.9561 27.6792 67.9202 28.1651 67.8392 28.786C67.7672 29.4159 67.7222 29.8658 67.7222 30.1358C67.5422 32.4843 67.6142 34.626 67.9471 36.5426C68.1091 37.4875 68.3971 38.2343 68.829 38.8102Z" fill="#F40387"/>
<path d="M86.043 33.7351C86.016 34.194 85.998 34.437 85.998 34.464C85.782 34.8329 85.5391 35.0759 85.2691 35.1929C84.1083 35.7418 83.0105 35.6518 81.9757 34.9139C80.5719 33.9061 79.7801 32.3674 79.5911 30.2887C79.5911 30.2257 79.5911 29.5868 79.5911 28.3631C79.4651 28.3631 79.3751 28.39 79.3211 28.435C79.2582 28.48 79.2042 28.525 79.1592 28.57C79.1142 28.615 79.0692 28.687 79.0242 28.777C78.9792 28.867 78.9432 28.93 78.9072 28.9569C75.7578 33.2582 73.1482 37.5774 71.0786 41.9147C71.0786 41.9417 70.9256 42.2476 70.6197 42.8325C70.4667 42.8595 70.2417 42.8865 69.9358 42.9045C69.6298 42.9225 69.4139 42.9405 69.2969 42.9765C69.1799 42.8865 68.9819 42.7515 68.721 42.5626C68.46 42.3826 68.2711 42.2296 68.1451 42.1037C68.0551 41.8247 68.1001 41.3208 68.2801 40.5919C68.9549 37.9374 70.2057 33.8161 72.0324 28.2281C72.3384 27.3102 74.228 21.4523 77.7104 10.6451C78.5923 7.83762 79.1772 6.03794 79.4471 5.24607C79.4471 5.18308 79.6001 4.80515 79.906 4.10327C80.6349 4.16626 81.1298 4.32823 81.3728 4.58919C81.6157 4.85014 81.6967 5.30006 81.5977 5.93895C81.2018 8.10757 80.8329 9.88927 80.4999 11.293C78.7003 18.3118 77.0175 24.0708 75.4608 28.561L75.2809 29.1549C75.3078 29.1549 75.3528 29.1729 75.4158 29.1999C75.8747 28.561 76.1177 28.2191 76.1447 28.1921C77.6744 26.0235 78.8442 24.3767 79.6721 23.2429C79.8521 23 80.086 22.739 80.356 22.4601C80.9949 21.7852 81.7327 21.6772 82.5516 22.1361C83.4964 22.6221 83.8834 23.3149 83.6944 24.1968C83.6044 24.5657 83.4784 25.0696 83.3254 25.7085C83.1725 26.3474 83.0645 26.7973 83.0015 27.0403C82.5426 29.0829 82.3446 30.7026 82.4076 31.8904C82.4346 32.8083 82.6236 33.5102 82.9565 33.9961C83.1995 33.9961 83.5324 33.9331 83.9643 33.8161C84.3873 33.6901 84.7292 33.6271 84.9722 33.6091C85.2331 33.6001 85.5841 33.6361 86.043 33.7351Z" fill="#F40387"/>
</g>
<defs>
<clipPath id="clip0_31_171">
<rect width="86.043" height="46" fill="white"/>
</clipPath>
</defs>
</svg>
