<svg width="49" height="49" viewBox="0 0 49 49" fill="none" xmlns="http://www.w3.org/2000/svg">
<path d="M43.4349 24.4321C43.4349 19.1385 41.5907 14.6484 37.9024 10.9619C34.214 7.27535 29.724 5.43117 24.4321 5.42936V0C27.8255 0 31.0044 0.64519 33.9688 1.93557C36.9332 3.22595 39.5122 4.96787 41.7057 7.16133C43.8991 9.35479 45.641 11.9337 46.9314 14.8982C48.2218 17.8626 48.8661 21.0406 48.8643 24.4321H43.4349ZM32.5762 24.4321C32.5762 22.1699 31.7844 20.247 30.2008 18.6634C28.6173 17.0799 26.6944 16.2881 24.4321 16.2881V10.8587C28.1874 10.8587 31.389 12.1826 34.0367 14.8303C36.6844 17.478 38.0074 20.6786 38.0055 24.4321H32.5762ZM46.0139 49C40.1773 49 34.4873 47.6988 28.9439 45.0963C23.4006 42.4938 18.4915 39.0552 14.2168 34.7805C9.94207 30.5058 6.50347 25.5967 3.901 20.0534C1.29852 14.51 -0.0018079 8.82091 1.88651e-06 2.98615C1.88651e-06 2.17175 0.27147 1.49307 0.814406 0.950138C1.35734 0.407202 2.03601 0.135734 2.85042 0.135734H13.8449C14.4783 0.135734 15.0439 0.339335 15.5416 0.746537C16.0392 1.15374 16.3333 1.67405 16.4238 2.30748L18.1884 11.8089C18.2789 12.4423 18.2671 13.0196 18.1531 13.5408C18.0391 14.0621 17.7794 14.5254 17.374 14.9307L10.8587 21.5817C12.759 24.8393 15.1343 27.8934 17.9848 30.7438C20.8352 33.5942 23.9797 36.06 27.4183 38.1413L33.7978 31.7618C34.205 31.3546 34.7371 31.0496 35.394 30.8469C36.051 30.6442 36.6953 30.5872 37.3269 30.6759L46.6925 32.5762C47.3259 32.7119 47.8463 33.0178 48.2535 33.4937C48.6607 33.9697 48.8643 34.5235 48.8643 35.1551V46.1496C48.8643 46.964 48.5928 47.6427 48.0499 48.1856C47.5069 48.7285 46.8283 49 46.0139 49Z" fill="#F1E612"/>
</svg>
